<svg width="20" height="21" viewBox="0 0 20 21" fill="none" xmlns="http://www.w3.org/2000/svg">
<path d="M16.6667 4.13696H3.33335C2.41669 4.13696 1.67502 4.88696 1.67502 5.80363L1.66669 15.8036C1.66669 16.7203 2.41669 17.4703 3.33335 17.4703H16.6667C17.5834 17.4703 18.3334 16.7203 18.3334 15.8036V5.80363C18.3334 4.88696 17.5834 4.13696 16.6667 4.13696ZM16.3334 7.67863L10.4417 11.362C10.175 11.5286 9.82502 11.5286 9.55835 11.362L3.66669 7.67863C3.45835 7.5453 3.33335 7.3203 3.33335 7.07863C3.33335 6.5203 3.94169 6.18696 4.41669 6.47863L10 9.9703L15.5834 6.47863C16.0584 6.18696 16.6667 6.5203 16.6667 7.07863C16.6667 7.3203 16.5417 7.5453 16.3334 7.67863Z" fill="white"/>
</svg>
