<svg width="21" height="20" viewBox="0 0 21 20" fill="none" xmlns="http://www.w3.org/2000/svg">
<path d="M9.66301 4.516C10.081 4.924 14.165 9.211 14.165 9.211C14.2709 9.31313 14.355 9.43555 14.4126 9.57093C14.4701 9.70632 14.4997 9.85191 14.4997 9.999C14.4997 10.1461 14.4701 10.2917 14.4126 10.4271C14.355 10.5625 14.2709 10.6849 14.165 10.787C14.165 10.787 10.081 15.076 9.66301 15.482C9.24501 15.89 8.49301 15.918 8.04801 15.482C7.60201 15.048 7.56701 14.441 8.04801 13.908L11.795 10L8.04801 6.092C7.56701 5.559 7.60201 4.951 8.04801 4.516C8.49301 4.08 9.24501 4.107 9.66301 4.516Z" fill="#B3B3B3"/>
</svg>
