<svg width="32" height="33" viewBox="0 0 32 33" fill="none" xmlns="http://www.w3.org/2000/svg">
<circle cx="16" cy="16.8037" r="16" fill="#2C2C2C"/>
<path d="M12.6666 26.8036C14.5066 26.8036 16 25.3103 16 23.4703V20.137H12.6666C10.8266 20.137 9.33331 21.6303 9.33331 23.4703C9.33331 25.3103 10.8266 26.8036 12.6666 26.8036Z" fill="#0ACF83"/>
<path d="M9.33331 16.8038C9.33331 14.9638 10.8266 13.4705 12.6666 13.4705H16V20.1371H12.6666C10.8266 20.1371 9.33331 18.6438 9.33331 16.8038Z" fill="#A259FF"/>
<path d="M9.33331 10.137C9.33331 8.29704 10.8266 6.80371 12.6666 6.80371H16V13.4704H12.6666C10.8266 13.4704 9.33331 11.977 9.33331 10.137Z" fill="#F24E1E"/>
<path d="M16 6.80371H19.3333C21.1733 6.80371 22.6667 8.29704 22.6667 10.137C22.6667 11.977 21.1733 13.4704 19.3333 13.4704H16V6.80371Z" fill="#FF7262"/>
<path d="M22.6667 16.8038C22.6667 18.6438 21.1733 20.1371 19.3333 20.1371C17.4933 20.1371 16 18.6438 16 16.8038C16 14.9638 17.4933 13.4705 19.3333 13.4705C21.1733 13.4705 22.6667 14.9638 22.6667 16.8038Z" fill="#1ABCFE"/>
</svg>
