<svg width="32" height="33" viewBox="0 0 32 33" fill="none" xmlns="http://www.w3.org/2000/svg">
<circle cx="16" cy="16.8037" r="16" fill="#0A66C2"/>
<path d="M24.6652 24.1369H21.3525V18.9399C21.3525 17.7006 21.3304 16.1052 19.6295 16.1052C17.9041 16.1052 17.6401 17.4554 17.6401 18.8496V24.1365H14.3274V13.4493H17.5076V14.9098H17.5522C18.1997 13.8008 19.4081 13.1359 20.69 13.1836C24.0475 13.1836 24.6666 15.3959 24.6666 18.2741L24.6652 24.1369Z" fill="white"/>
<path d="M10.5895 11.9885C10.5893 11.9885 10.5892 11.9885 10.5891 11.9885C9.53451 11.9885 8.66669 11.1193 8.66669 10.0628C8.66669 9.00631 9.53451 8.13696 10.5891 8.13696C11.6437 8.13696 12.5114 9.00611 12.5116 10.0624C12.5116 10.0625 12.5116 10.0626 12.5116 10.0628C12.5116 11.1191 11.644 11.9884 10.5895 11.9885Z" fill="white"/>
<path d="M12.2459 24.137H8.92969V13.4495H12.2459V24.137Z" fill="white"/>
</svg>
