<svg width="53" height="52" viewBox="0 0 53 52" fill="none" xmlns="http://www.w3.org/2000/svg">
<path d="M36.1945 17.4094L36.1941 17.4095L18.6902 27.0076L18.6894 27.008C18.5196 27.1007 18.4711 27.235 18.4789 27.3477C18.4871 27.4665 18.56 27.5918 18.7187 27.6556C18.7188 27.6557 18.7189 27.6557 18.7191 27.6558L22.4551 29.1456L33.074 20.2507C33.0744 20.2504 33.0748 20.2501 33.0752 20.2497C33.4032 19.973 33.8118 20.0594 34.0416 20.2698C34.1565 20.3751 34.2504 20.5287 34.2719 20.7155C34.2946 20.913 34.2311 21.1058 34.1003 21.257L36.1945 17.4094ZM36.1945 17.4094C36.3448 17.3268 36.5154 17.3432 36.6456 17.4283C36.772 17.5109 36.8304 17.6351 36.8058 17.7741L36.8057 17.7749L34.0869 33.2795C34.0869 33.2797 34.0868 33.2799 34.0868 33.28C34.0485 33.4924 33.7845 33.6633 33.5192 33.5568L33.5178 33.5562L28.8123 31.6826L28.4818 31.5509L28.2491 31.8202L25.851 34.5948L25.8505 34.5954C25.736 34.7282 25.5566 34.7687 25.3878 34.712C25.2274 34.6581 25.1243 34.5345 25.1243 34.3546V31.6511L34.0995 21.2579L36.1945 17.4094ZM18.3466 28.5838L18.3476 28.5842L22.362 30.1851L22.6394 30.2957L22.8683 30.104L31.0769 23.228L24.2459 31.1383L24.1243 31.2791V31.4651V34.3546C24.1243 35.0218 24.5593 35.4886 25.0693 35.6599C25.5708 35.8285 26.1939 35.729 26.6081 35.248L28.773 32.7433L33.1465 34.4848C33.1467 34.4848 33.1469 34.4849 33.1471 34.485C33.954 34.8087 34.913 34.341 35.0713 33.4555L35.0716 33.4539L37.7905 17.9485C37.8943 17.3624 37.6071 16.8621 37.1926 16.5912C36.7818 16.3227 36.216 16.2566 35.713 16.5329L18.2101 26.1304C17.142 26.7137 17.2892 28.1595 18.3466 28.5838ZM0.820312 26.1446C0.820312 12.4627 11.9117 1.37134 25.5936 1.37134H26.797C40.4789 1.37134 51.5703 12.4627 51.5703 26.1446C51.5703 39.8265 40.4789 50.9179 26.7971 50.9179H25.5936C11.9117 50.9179 0.820312 39.8265 0.820312 26.1446Z" fill="#DAD4F7" stroke="#212529"/>
</svg>
